<svg xmlns="http://www.w3.org/2000/svg" width="400" height="300" viewBox="0 0 400 300">
  <defs>
    <radialGradient id="bg" cx="50%" cy="40%" r="70%">
      <stop offset="0%" stop-color="#FFF9C4"/>
      <stop offset="100%" stop-color="#E65100"/>
    </radialGradient>
    <radialGradient id="piece1" cx="40%" cy="35%" r="65%">
      <stop offset="0%" stop-color="#FF8A65"/>
      <stop offset="100%" stop-color="#BF360C"/>
    </radialGradient>
    <radialGradient id="piece2" cx="40%" cy="35%" r="65%">
      <stop offset="0%" stop-color="#FF7043"/>
      <stop offset="100%" stop-color="#D84315"/>
    </radialGradient>
  </defs>
  <!-- Background -->
  <rect width="400" height="300" fill="url(#bg)" rx="12"/>
  <!-- Decorative dots -->
  <circle cx="30" cy="30" r="6" fill="#B71C1C" opacity="0.4"/>
  <circle cx="370" cy="30" r="6" fill="#B71C1C" opacity="0.4"/>
  <circle cx="30" cy="270" r="6" fill="#B71C1C" opacity="0.4"/>
  <circle cx="370" cy="270" r="6" fill="#B71C1C" opacity="0.4"/>
  <!-- Spice scatter -->
  <circle cx="60" cy="75" r="3" fill="#4A148C" opacity="0.3"/>
  <circle cx="340" cy="85" r="3" fill="#4A148C" opacity="0.3"/>
  <circle cx="80" cy="225" r="3" fill="#4A148C" opacity="0.3"/>
  <circle cx="325" cy="220" r="3" fill="#4A148C" opacity="0.3"/>
  <circle cx="350" cy="60" r="2" fill="#E65100" opacity="0.4"/>
  <circle cx="50" cy="200" r="2" fill="#E65100" opacity="0.4"/>
  <!-- Plate shadow -->
  <ellipse cx="200" cy="225" rx="118" ry="17" fill="#BF360C" opacity="0.2"/>
  <!-- Plate -->
  <ellipse cx="200" cy="210" rx="130" ry="22" fill="#E8DDD0"/>
  <ellipse cx="200" cy="205" rx="125" ry="20" fill="#FFF8F0"/>
  <!-- Banana leaf mat hint -->
  <ellipse cx="200" cy="205" rx="120" ry="18" fill="#C8E6C9" opacity="0.3"/>
  <!-- Chicken 65 pieces -->
  <!-- piece 1 -->
  <ellipse cx="155" cy="180" rx="28" ry="22" fill="url(#piece1)"/>
  <ellipse cx="155" cy="175" rx="20" ry="14" fill="#FF5722" opacity="0.6"/>
  <!-- piece 2 -->
  <ellipse cx="200" cy="168" rx="30" ry="23" fill="url(#piece2)"/>
  <ellipse cx="200" cy="163" rx="22" ry="15" fill="#FF7043" opacity="0.55"/>
  <!-- piece 3 -->
  <ellipse cx="245" cy="180" rx="28" ry="22" fill="url(#piece1)"/>
  <ellipse cx="245" cy="175" rx="20" ry="14" fill="#FF5722" opacity="0.6"/>
  <!-- piece 4 (back row) -->
  <ellipse cx="175" cy="158" rx="24" ry="18" fill="#D84315" opacity="0.85"/>
  <ellipse cx="225" cy="158" rx="24" ry="18" fill="#BF360C" opacity="0.85"/>
  <!-- Crispy coating texture dots -->
  <circle cx="150" cy="173" r="2.5" fill="#BF360C" opacity="0.6"/>
  <circle cx="162" cy="182" r="2" fill="#8D2B00" opacity="0.5"/>
  <circle cx="197" cy="162" r="2.5" fill="#BF360C" opacity="0.6"/>
  <circle cx="208" cy="172" r="2" fill="#8D2B00" opacity="0.5"/>
  <circle cx="242" cy="174" r="2.5" fill="#BF360C" opacity="0.6"/>
  <circle cx="253" cy="183" r="2" fill="#8D2B00" opacity="0.5"/>
  <!-- Curry leaves garnish -->
  <ellipse cx="140" cy="192" rx="7" ry="4" fill="#2E7D32" opacity="0.85" transform="rotate(-30 140 192)"/>
  <ellipse cx="260" cy="192" rx="7" ry="4" fill="#1B5E20" opacity="0.85" transform="rotate(30 260 192)"/>
  <ellipse cx="200" cy="154" rx="7" ry="4" fill="#388E3C" opacity="0.85" transform="rotate(-10 200 154)"/>
  <!-- Red chili garnish -->
  <path d="M130 185 Q122 178 118 168 Q122 166 126 174 Q130 180 132 187 Z" fill="#C62828" opacity="0.85"/>
  <circle cx="118" cy="167" r="4" fill="#388E3C" opacity="0.8"/>
  <path d="M270 185 Q278 178 282 168 Q278 166 274 174 Q270 180 268 187 Z" fill="#C62828" opacity="0.85"/>
  <circle cx="282" cy="167" r="4" fill="#388E3C" opacity="0.8"/>
  <!-- Lemon wedge -->
  <path d="M195 195 Q200 188 205 195 Z" fill="#FFF176" opacity="0.9" stroke="#F9A825" stroke-width="0.8"/>
  <ellipse cx="200" cy="196" rx="8" ry="5" fill="#FFF176" opacity="0.8" stroke="#F9A825" stroke-width="0.8"/>
  <!-- onion rings -->
  <ellipse cx="175" cy="198" rx="10" ry="4" fill="none" stroke="#F5A623" stroke-width="1.5" opacity="0.7"/>
  <ellipse cx="225" cy="198" rx="10" ry="4" fill="none" stroke="#F5A623" stroke-width="1.5" opacity="0.7"/>
  <!-- Label -->
  <rect x="75" y="240" width="250" height="42" rx="8" fill="#BF360C" opacity="0.87"/>
  <text x="200" y="257" text-anchor="middle" font-family="Georgia, serif" font-size="14" font-weight="bold" fill="#FFF9C4">CHICKEN 65</text>
  <text x="200" y="274" text-anchor="middle" font-family="Georgia, serif" font-size="11" fill="#FFCCBC">Starter · $8</text>
</svg>
